<svg viewBox="0 0 1200 1200" xmlns="http://www.w3.org/2000/svg" fill="#e53935"><path d="m943.59 953.49h-687.19c-30.336 0-55.031-24.676-55.031-55.031v-687.19c0-30.336 24.676-55.031 55.031-55.031h687.19c30.336 0 55.031 24.676 55.031 55.031v687.19c0 30.34-24.695 55.031-55.031 55.031zm-687.19-759.75c-9.6758 0-17.531 7.8555-17.531 17.531v687.19c0 9.6758 7.8555 17.531 17.531 17.531h687.19c9.6758 0 17.531-7.8555 17.531-17.531v-687.19c0-9.6758-7.8555-17.531-17.531-17.531z"/><path d="m514.39 533.16h-96.844v89.812h107.93v26.98h-140.1v-249.13h134.57v26.961h-102.39v78.73h96.844z"/><path d="m561.62 616.69c9.6172 6.2812 26.625 12.938 42.883 12.938 23.664 0 34.762-11.832 34.762-26.625 0-15.523-9.2422-24.02-33.262-32.887-32.156-11.457-47.305-29.211-47.305-50.645 0-28.836 23.289-52.5 61.727-52.5 18.113 0 33.992 5.1758 44.008 11.102l-8.1797 23.66c-7.0117-4.4258-19.949-10.352-36.582-10.352-19.219 0-29.945 11.082-29.945 24.395 0 14.773 10.707 21.449 33.992 30.301 31.051 11.832 46.949 27.355 46.949 53.98 0 31.426-24.414 53.586-66.898 53.586-19.594 0-37.707-4.8203-50.289-12.188z"/><path d="m839.93 643.31c-8.4922 4.4258-27.355 10.352-51.375 10.352-53.961 0-89.082-36.602-89.082-91.293 0-55.086 37.707-95.008 96.113-95.008 19.219 0 36.227 4.8203 45.094 9.2422l-7.4062 25.145c-7.7617-4.4258-19.949-8.5117-37.707-8.5117-41.023 0-63.207 30.32-63.207 67.648 0 41.398 26.605 66.898 62.102 66.898 18.488 0 30.695-4.8203 39.938-8.8867z"/></svg>
